<?xml version="1.0" encoding="UTF-8"?>
<!DOCTYPE svg PUBLIC "-//W3C//DTD SVG 1.1//EN" "http://www.w3.org/Graphics/SVG/1.1/DTD/svg11.dtd">
<svg xmlns="http://www.w3.org/2000/svg" version="1.1" width="512px" height="512px" style="shape-rendering:geometricPrecision; text-rendering:geometricPrecision; image-rendering:optimizeQuality; fill-rule:evenodd; clip-rule:evenodd" xmlns:xlink="http://www.w3.org/1999/xlink">
<g><path style="opacity:1" fill="#209cee" d="M 40.5,-0.5 C 183.833,-0.5 327.167,-0.5 470.5,-0.5C 491.833,5.5 505.5,19.1667 511.5,40.5C 511.5,100.833 511.5,161.167 511.5,221.5C 509.278,221.178 507.444,221.845 506,223.5C 492.047,241.788 477.714,259.788 463,277.5C 448.303,258.646 433.469,239.979 418.5,221.5C 405.327,220.175 391.994,220.175 378.5,221.5C 378.624,222.107 378.957,222.44 379.5,222.5C 400.523,248.193 421.19,274.193 441.5,300.5C 418.854,328.478 395.854,356.144 372.5,383.5C 371.957,383.56 371.624,383.893 371.5,384.5C 384.327,385.825 396.994,385.825 409.5,384.5C 426.461,362.871 443.795,341.538 461.5,320.5C 478.22,340.877 494.887,361.21 511.5,381.5C 511.5,411.167 511.5,440.833 511.5,470.5C 505.5,491.833 491.833,505.5 470.5,511.5C 327.167,511.5 183.833,511.5 40.5,511.5C 19.1667,505.5 5.5,491.833 -0.5,470.5C -0.5,381.5 -0.5,292.5 -0.5,203.5C 20.3342,258.657 41.0008,313.991 61.5,369.5C 72.8138,370.499 84.1471,370.832 95.5,370.5C 116.027,313.42 136.861,256.42 158,199.5C 160.542,189.542 162.876,179.542 165,169.5C 165.168,176.83 165.001,184.163 164.5,191.5C 163.501,255.998 163.168,320.665 163.5,385.5C 175.167,385.5 186.833,385.5 198.5,385.5C 198.833,297.332 198.499,209.332 197.5,121.5C 182.485,121.167 167.485,121.501 152.5,122.5C 130.099,186.871 107.599,251.204 85,315.5C 81.9084,323.627 79.5751,331.96 78,340.5C 77.1844,335.454 76.1844,330.454 75,325.5C 50.9954,257.652 27.4954,189.652 4.5,121.5C 2.83333,121.5 1.16667,121.5 -0.5,121.5C -0.5,94.5 -0.5,67.5 -0.5,40.5C 5.5,19.1667 19.1667,5.5 40.5,-0.5 Z"/></g>
<g><path style="opacity:1" fill="#fdfefe" d="M -0.5,121.5 C 1.16667,121.5 2.83333,121.5 4.5,121.5C 27.4954,189.652 50.9954,257.652 75,325.5C 76.1844,330.454 77.1844,335.454 78,340.5C 79.5751,331.96 81.9084,323.627 85,315.5C 107.599,251.204 130.099,186.871 152.5,122.5C 167.485,121.501 182.485,121.167 197.5,121.5C 197.5,209.167 197.5,296.833 197.5,384.5C 186.5,384.5 175.5,384.5 164.5,384.5C 164.5,320.167 164.5,255.833 164.5,191.5C 165.001,184.163 165.168,176.83 165,169.5C 162.876,179.542 160.542,189.542 158,199.5C 136.861,256.42 116.027,313.42 95.5,370.5C 84.1471,370.832 72.8138,370.499 61.5,369.5C 41.0008,313.991 20.3342,258.657 -0.5,203.5C -0.5,176.167 -0.5,148.833 -0.5,121.5 Z"/></g>
<g><path style="opacity:1" fill="#a0d4f7" d="M 197.5,121.5 C 198.499,209.332 198.833,297.332 198.5,385.5C 186.833,385.5 175.167,385.5 163.5,385.5C 163.168,320.665 163.501,255.998 164.5,191.5C 164.5,255.833 164.5,320.167 164.5,384.5C 175.5,384.5 186.5,384.5 197.5,384.5C 197.5,296.833 197.5,209.167 197.5,121.5 Z"/></g>
<g><path style="opacity:1" fill="#fefefe" d="M 305.5,153.5 C 305.5,176.167 305.5,198.833 305.5,221.5C 319.5,221.5 333.5,221.5 347.5,221.5C 347.5,231.167 347.5,240.833 347.5,250.5C 333.5,250.5 319.5,250.5 305.5,250.5C 305.169,280.338 305.502,310.005 306.5,339.5C 307.884,355.718 316.551,362.218 332.5,359C 335.071,358.099 337.404,356.766 339.5,355C 340.635,354.251 341.635,354.417 342.5,355.5C 346.706,363.414 351.04,371.247 355.5,379C 339.902,389.035 322.902,392.368 304.5,389C 281.859,382.495 270.859,367.329 271.5,343.5C 271.5,312.5 271.5,281.5 271.5,250.5C 260.833,250.5 250.167,250.5 239.5,250.5C 239.5,240.833 239.5,231.167 239.5,221.5C 250.167,221.5 260.833,221.5 271.5,221.5C 271.5,198.833 271.5,176.167 271.5,153.5C 282.833,153.5 294.167,153.5 305.5,153.5 Z"/></g>
<g><path style="opacity:1" fill="#8fcdf6" d="M 418.5,221.5 C 405.323,221.171 392.323,221.505 379.5,222.5C 378.957,222.44 378.624,222.107 378.5,221.5C 391.994,220.175 405.327,220.175 418.5,221.5 Z"/></g>
<g><path style="opacity:1" fill="#fdfefe" d="M 418.5,221.5 C 433.469,239.979 448.303,258.646 463,277.5C 477.714,259.788 492.047,241.788 506,223.5C 507.444,221.845 509.278,221.178 511.5,221.5C 511.5,235.5 511.5,249.5 511.5,263.5C 501.509,274.831 491.842,286.498 482.5,298.5C 491.947,310.422 501.613,322.088 511.5,333.5C 511.5,349.5 511.5,365.5 511.5,381.5C 494.887,361.21 478.22,340.877 461.5,320.5C 443.795,341.538 426.461,362.871 409.5,384.5C 396.989,384.829 384.655,384.495 372.5,383.5C 395.854,356.144 418.854,328.478 441.5,300.5C 421.19,274.193 400.523,248.193 379.5,222.5C 392.323,221.505 405.323,221.171 418.5,221.5 Z"/></g>
<g><path style="opacity:1" fill="#4daff0" d="M 239.5,250.5 C 250.167,250.5 260.833,250.5 271.5,250.5C 271.5,281.5 271.5,312.5 271.5,343.5C 270.502,313.005 270.169,282.338 270.5,251.5C 259.986,251.828 249.653,251.494 239.5,250.5 Z"/></g>
<g><path style="opacity:1" fill="#88c9f5" d="M 305.5,153.5 C 306.497,175.66 306.831,197.994 306.5,220.5C 320.5,220.5 334.5,220.5 348.5,220.5C 348.5,230.833 348.5,241.167 348.5,251.5C 334.5,251.5 320.5,251.5 306.5,251.5C 306.5,280.833 306.5,310.167 306.5,339.5C 305.502,310.005 305.169,280.338 305.5,250.5C 319.5,250.5 333.5,250.5 347.5,250.5C 347.5,240.833 347.5,231.167 347.5,221.5C 333.5,221.5 319.5,221.5 305.5,221.5C 305.5,198.833 305.5,176.167 305.5,153.5 Z"/></g>
<g><path style="opacity:1" fill="#259dee" d="M 511.5,263.5 C 511.5,286.833 511.5,310.167 511.5,333.5C 501.613,322.088 491.947,310.422 482.5,298.5C 491.842,286.498 501.509,274.831 511.5,263.5 Z"/></g>
<g><path style="opacity:1" fill="#c4e4fa" d="M 372.5,383.5 C 384.655,384.495 396.989,384.829 409.5,384.5C 396.994,385.825 384.327,385.825 371.5,384.5C 371.624,383.893 371.957,383.56 372.5,383.5 Z"/></g>
</svg>
